<svg xmlns="http://www.w3.org/2000/svg" xmlns:xlink="http://www.w3.org/1999/xlink" version="1.1" viewBox="0 0 32 32" style="enable-background:new 0 0 32 32;" xml:space="preserve" height="100px" width="100px" transform="rotate(0) scale(1, 1)"><style type="text/css">.st0 { display: none; }.st1 { display: inline; }.st2 { fill: #cdf6f900; }.st3 { fill: #ffffff00; }.st4 { fill: #00dac6; }</style><g id="Layer_1" class="st0"/><g id="Layer_2"/><g id="Layer_3"><path class="st2" d="M20.65,15.68v0.64c0,1.77,1.43,3.21,3.21,3.21h3.92v3.39c0,1.98-1.61,3.59-3.6,3.59H6.6   c-1.99,0-3.6-1.61-3.6-3.59V9.08C3,7.1,4.61,5.49,6.6,5.49h17.58c1.99,0,3.6,1.61,3.6,3.59v3.39h-3.92   C22.08,12.47,20.65,13.91,20.65,15.68z"/><path class="st3" d="M29,13.42v5.16c0,0.52-0.42,0.95-0.95,0.95h-4.19c-1.78,0-3.21-1.44-3.21-3.21v-0.64   c0-1.77,1.43-3.21,3.21-3.21h4.19C28.58,12.47,29,12.9,29,13.42z"/><path class="st4" d="M28.683,11.693V9.084c0-2.48-2.018-4.498-4.499-4.498H6.599c-2.48,0-4.499,2.018-4.499,4.498v13.832   c0,2.48,2.018,4.498,4.499,4.498h17.586c2.48,0,4.499-2.018,4.499-4.498v-2.609c0.708-0.26,1.217-0.934,1.217-1.73v-5.153   C29.9,12.627,29.391,11.953,28.683,11.693z M28.1,13.423v5.153c0,0.027-0.022,0.049-0.049,0.049h-4.195   c-1.273,0-2.309-1.036-2.309-2.309v-0.634c0-1.273,1.036-2.309,2.309-2.309L28.1,13.423z M24.185,25.614H6.599   c-1.488,0-2.699-1.21-2.699-2.698V9.084c0-1.488,1.211-2.698,2.699-2.698h17.586c1.488,0,2.699,1.21,2.699,2.698v2.491h-3.028   c-2.266,0-4.109,1.843-4.109,4.108v0.634c0,2.266,1.843,4.108,4.109,4.108h3.028v2.491C26.883,24.404,25.672,25.614,24.185,25.614z   "/></g><g id="Layer_4"/><g id="Layer_5"/><g id="Layer_6"/><g id="Layer_7"/><g id="Layer_8"/><g id="Layer_9"/><g id="Layer_10"/><g id="Layer_11"/><g id="Layer_12"/><g id="Layer_13"/><g id="Layer_14"/><g id="Layer_15"/><g id="Layer_16"/><g id="Layer_17"/><g id="Layer_18"/><g id="Layer_19"/><g id="Layer_20"/><g id="Layer_21"/><g id="Layer_22"/><g id="Layer_23"/><g id="Layer_24"/><g id="Layer_25"/><g id="Layer_26"/></svg>